<svg width="32" height="32" viewBox="0 0 32 32" fill="none" stroke="currentColor" xmlns="http://www.w3.org/2000/svg">
<path d="M6.10119 16C4.9365 16 3.83807 15.6284 2.92463 14.9253C2.754 14.7941 2.58994 14.6506 2.43682 14.4994C1.37057 13.4456 0.834005 12.0422 0.926192 10.5475C0.99588 9.41781 1.45088 8.32875 2.20807 7.48094C3.21088 6.35812 4.59338 5.73969 6.1015 5.73969C6.36057 5.73969 6.62213 5.75906 6.87963 5.79719L7.27963 5.85656V9.40625L6.66369 9.20281C6.48432 9.14344 6.29775 9.11344 6.109 9.11344C5.63213 9.11344 5.18557 9.30031 4.8515 9.63937C4.519 9.97687 4.33994 10.4231 4.34682 10.8966C4.35588 11.5069 4.67744 12.06 5.20682 12.3769C5.45057 12.5225 5.72807 12.6078 6.00994 12.6234C6.23244 12.6356 6.45213 12.6066 6.66338 12.5369C7.38557 12.2984 7.87088 11.6284 7.87088 10.87L7.874 7.18875V0H11.2665L11.2706 0.464375C11.2724 0.674687 11.294 0.885 11.3346 1.08875C11.494 1.89 11.9434 2.60406 12.5999 3.09906C13.1828 3.53875 13.8784 3.77094 14.6109 3.77094C14.6281 3.77094 14.6281 3.77094 14.7846 3.78187L15.2206 3.8125V6.6875V7.15625L15.0643 7.15594H14.7528C14.7503 7.15594 14.7478 7.15594 14.7449 7.15594H14.5953C14.5946 7.15594 14.5937 7.15594 14.5928 7.15594C13.6893 7.15594 12.8428 6.98375 12.0037 6.62969C11.7537 6.52406 11.5103 6.40344 11.2753 6.26875L11.2859 10.8878C11.2803 12.2541 10.7403 13.5356 9.76557 14.4991C8.97463 15.2806 7.9765 15.78 6.879 15.9425C6.62307 15.9806 6.3615 16 6.10119 16V16ZM6.10119 6.67719C4.864 6.67719 3.72963 7.18437 2.90713 8.10531C2.28963 8.79687 1.91838 9.68469 1.8615 10.605C1.7865 11.8253 2.22463 12.9716 3.09557 13.8322C3.2215 13.9566 3.35619 14.0744 3.49619 14.1822C4.24432 14.7581 5.14525 15.0625 6.10119 15.0625C6.31557 15.0625 6.53088 15.0466 6.74182 15.0153C7.64088 14.8822 8.45869 14.4731 9.10682 13.8325C9.90307 13.0456 10.344 11.9997 10.3487 10.8872L10.334 4.4375L11.0912 5.02156C11.4821 5.32313 11.9121 5.57375 12.3687 5.76656C12.9928 6.03 13.6218 6.17625 14.2828 6.21094V4.69688C13.4659 4.63563 12.6943 4.34531 12.0353 3.84812C11.1946 3.21437 10.6193 2.29937 10.4149 1.27219C10.3931 1.16187 10.3753 1.05031 10.3621 0.937813H8.81119V7.18906L8.80807 10.8703C8.80807 12.0338 8.06432 13.0613 6.95713 13.4269C6.63432 13.5334 6.29838 13.5778 5.95838 13.5594C5.52525 13.5356 5.09901 13.4047 4.72526 13.1812C3.91494 12.6966 3.42275 11.8475 3.409 10.9103C3.39838 10.1841 3.67307 9.49906 4.18307 8.98125C4.69463 8.46187 5.37838 8.17594 6.10838 8.17594C6.1865 8.17594 6.26401 8.17938 6.34151 8.18594V6.68375C6.26151 6.67938 6.18119 6.67719 6.10119 6.67719V6.67719Z" fill="black"/>
</svg>
