<svg width="22" height="25" viewBox="0 0 22 25" fill="none" stroke="currentColor" xmlns="http://www.w3.org/2000/svg">
<path d="M7.77776 24.985C6.03073 24.985 4.38308 24.4277 3.01292 23.373C2.75698 23.1761 2.51089 22.961 2.2812 22.7341C0.681828 21.1535 -0.123016 19.0483 0.0152652 16.8063C0.119796 15.1118 0.802296 13.4782 1.93808 12.2065C3.4423 10.5222 5.51605 9.59458 7.77823 9.59458C8.16683 9.59458 8.55917 9.62364 8.94542 9.68083L9.54542 9.76989V15.0944L8.62151 14.7893C8.35245 14.7002 8.07261 14.6552 7.78948 14.6552C7.07417 14.6552 6.40433 14.9355 5.90323 15.4441C5.40448 15.9504 5.13589 16.6197 5.1462 17.3299C5.1598 18.2454 5.64214 19.075 6.4362 19.5504C6.80183 19.7688 7.21808 19.8968 7.64089 19.9202C7.97464 19.9385 8.30417 19.8949 8.62105 19.7904C9.70433 19.4327 10.4323 18.4277 10.4323 17.29L10.437 11.7682V0.985046H15.5257L15.5318 1.68161C15.5346 1.99708 15.567 2.31255 15.6279 2.61817C15.867 3.82005 16.541 4.89114 17.5259 5.63364C18.4001 6.29317 19.4435 6.64145 20.5423 6.64145C20.5681 6.64145 20.5681 6.64145 20.8029 6.65786L21.4568 6.7038V11.0163V11.7194L21.2225 11.719H20.7551C20.7514 11.719 20.7476 11.719 20.7434 11.719H20.5189C20.5179 11.719 20.5165 11.719 20.5151 11.719C19.16 11.719 17.8901 11.4607 16.6315 10.9296C16.2565 10.7711 15.8914 10.5902 15.5389 10.3882L15.5548 17.3168C15.5464 19.3661 14.7364 21.2885 13.2743 22.7336C12.0879 23.906 10.5907 24.655 8.94448 24.8988C8.56058 24.956 8.16823 24.985 7.77776 24.985V24.985ZM7.77776 11.0008C5.92198 11.0008 4.22042 11.7616 2.98667 13.143C2.06042 14.1804 1.50355 15.5121 1.41823 16.8925C1.30573 18.723 1.96292 20.4424 3.26933 21.7333C3.45823 21.9199 3.66026 22.0966 3.87026 22.2583C4.99245 23.1222 6.34386 23.5788 7.77776 23.5788C8.09933 23.5788 8.4223 23.5549 8.7387 23.508C10.0873 23.3083 11.314 22.6947 12.2862 21.7338C13.4806 20.5535 14.142 18.9846 14.149 17.3158L14.127 7.6413L15.2628 8.51739C15.8492 8.96973 16.4942 9.34567 17.179 9.63489C18.1151 10.03 19.0587 10.2494 20.0501 10.3015V8.03036C18.8248 7.93848 17.6675 7.50302 16.6789 6.75723C15.4179 5.80661 14.555 4.43411 14.2484 2.89333C14.2156 2.72786 14.1889 2.56052 14.1692 2.39177H11.8428V11.7686L11.8381 17.2905C11.8381 19.0357 10.7225 20.5769 9.06167 21.1254C8.57745 21.2852 8.07355 21.3518 7.56355 21.3241C6.91386 21.2885 6.27448 21.0921 5.71386 20.7569C4.49839 20.0299 3.76011 18.7563 3.73948 17.3505C3.72355 16.2611 4.13558 15.2336 4.90058 14.4569C5.66792 13.6779 6.69355 13.249 7.78855 13.249C7.90573 13.249 8.02198 13.2541 8.13823 13.264V11.0107C8.01823 11.0041 7.89776 11.0008 7.77776 11.0008V11.0008Z" fill="currentColor"/>
</svg>
